<?xml version="1.0" standalone="no"?><!DOCTYPE svg PUBLIC "-//W3C//DTD SVG 1.1//EN" "http://www.w3.org/Graphics/SVG/1.1/DTD/svg11.dtd"><svg t="1706791792025" class="icon" viewBox="0 0 1024 1024" version="1.1" xmlns="http://www.w3.org/2000/svg" p-id="8964" xmlns:xlink="http://www.w3.org/1999/xlink" width="128" height="128"><path d="M512 0C230.4 0 0 230.4 0 512s230.4 512 512 512 512-230.4 512-512S793.6 0 512 0z m276.48 268.8c-2.56 10.24-94.72 240.64-186.88 335.36-92.16 92.16-325.12 184.32-335.36 186.88-2.56 0-5.12 2.56-10.24 2.56-7.68 0-12.8-2.56-17.92-7.68-7.68-7.68-10.24-17.92-5.12-28.16 2.56-10.24 94.72-240.64 186.88-335.36 92.16-92.16 325.12-184.32 335.36-186.88 10.24-2.56 20.48-2.56 28.16 5.12 7.68 7.68 10.24 17.92 5.12 28.16z" fill="#E63C33" p-id="8965"></path><path d="M512 512m-51.2 0a51.2 51.2 0 1 0 102.4 0 51.2 51.2 0 1 0-102.4 0Z" fill="#E63C33" p-id="8966"></path></svg>