<?xml version="1.0" standalone="no"?><!DOCTYPE svg PUBLIC "-//W3C//DTD SVG 1.1//EN" "http://www.w3.org/Graphics/SVG/1.1/DTD/svg11.dtd"><svg t="1708168845750" class="icon" viewBox="0 0 1024 1024" version="1.1" xmlns="http://www.w3.org/2000/svg" p-id="7258" xmlns:xlink="http://www.w3.org/1999/xlink" width="128" height="128"><path d="M794.835182 155.110707c24.066115 0 43.6348 19.35686 43.634799 43.11496 0 10.601452-3.729951 20.423145-10.804066 28.362978-0.710175 0.826831-1.422396 1.700735-2.114151 2.536776L595.65477 464.406029c-10.264784 10.533914-16.031115 24.594141-16.031115 39.222303v333.064678l-142.744051-114.344234V496.496911a55.959499 55.959499 0 0 0-16.032139-39.193651L198.869838 229.884714c-0.960885-1.345648-1.960655-2.681062-3.037173-3.862981-6.728238-7.871271-10.264784-17.482163-10.264784-27.796066 0-23.7581 19.567661-43.11496 43.615357-43.11496h565.651944m0-56.465013H229.183238c-55.533804 0-100.782358 44.672432-100.782358 99.580996 0 23.74889 8.439206 46.306652 23.798009 64.241117a29.401634 29.401634 0 0 0 4.03592 5.074575l223.515656 228.955552v239.325738c0 8.506744 3.845585 16.051581 9.842159 21.183461 0.345877 0.335644 0.672312 0.61603 1.038656 0.960885l200.871937 160.898526c5.190209 4.353145 11.514241 6.487761 17.877159 6.487762 7.824199 0 15.608489-3.287883 21.067828-9.621125 5.265934-6.139837 7.266497-13.886265 6.30459-21.249977V503.628332l230.916206-236.31824c1.115404-1.076518 2.075265-2.258437 2.940982-3.470032 16.146749-18.173918 24.989137-41.318034 24.989138-65.615416-0.001023-54.907541-45.192272-99.578949-100.763938-99.57895z" fill="#bfbfbf" p-id="7259"></path></svg>